<svg preserveAspectRatio="none" width="100%" height="100%" overflow="visible" style="display: block;" viewBox="0 0 319.99 365.703" fill="none" xmlns="http://www.w3.org/2000/svg">
<g id="axis-blob" clip-path="url(#clip0_0_21)">
<path id="Vector" d="M233.373 332.922C224.295 332.922 211.472 328.378 196.57 310.153C189.164 300.905 184.008 290.231 179.021 279.909C173.394 268.266 168.077 257.267 160.036 248.797L159.872 248.614C143.817 230.439 117.564 227.486 98.7947 241.743L98.589 241.894C88.267 249.149 81.2547 260.632 73.8355 272.792C72.2766 275.342 70.7224 277.893 69.1362 280.398C48.9494 312.16 25.9786 313.417 12.4385 304.855C-8.06374 291.89 -14.8795 253.569 9.86028 214.265C20.6942 197.045 29.6631 180.118 20.5708 162.427C-0.0639945 125.756 -16.8315 91.9057 -13.211 49.1505C-11.8854 26.1569 -0.681119 7.36435 14.683 2.36336C21.8005 0.0502857 35.9303 -1.14739 50.6362 16.8406C60.6199 29.5854 64.894 46.1792 68.6699 60.821C78.3747 102.337 92.7789 124.184 114.031 129.724C126.405 132.919 140.896 129.738 151.826 121.409C163.52 112.627 169.983 98.7215 176.232 85.2774C181.512 73.9177 186.975 62.1695 195.601 53.6852L195.848 53.4521C209.356 41.425 224.491 38.8468 237.382 46.3711C253.967 56.0486 261.926 79.5907 256.756 103.645C254.516 115.841 249.789 127.991 241.437 143.031C240.358 144.983 239.247 146.935 238.137 148.882C232.688 158.459 227.54 167.506 226.416 176.118C224.738 188.675 231.124 199.226 238.516 211.445C240.203 214.233 241.945 217.118 243.627 220.085C251.691 233.936 257.007 246.333 260.321 259.027V259.037L260.495 259.704C269.24 291.959 262.835 320.982 244.898 330.207C242.457 331.464 238.516 332.918 233.378 332.918L233.373 332.922Z" fill="var(--fill-0, #15295A)"/>
</g>
<defs>
<clipPath id="clip0_0_21">
<rect width="319.99" height="365.703" fill="white"/>
</clipPath>
</defs>
</svg>
