<svg preserveAspectRatio="none" width="100%" height="100%" overflow="visible" style="display: block;" viewBox="0 0 20 20" fill="none" xmlns="http://www.w3.org/2000/svg">
<g id="SVG">
<path id="Vector" d="M14.5833 12C14.3333 11.9167 13.1667 11.3333 12.9167 11.25C12.6667 11.1667 12.5 11.1667 12.3333 11.3333C12.1667 11.5833 11.6667 12.0833 11.5 12.25C11.3333 12.4167 11.1667 12.4167 10.9167 12.3333C10.6667 12.1667 9.91667 11.9167 9 11.1667C8.25 10.5 7.83333 9.75 7.66667 9.5C7.5 9.25 7.66667 9.16667 7.75 9C7.83333 8.91667 8 8.66667 8.08333 8.58333C8.16667 8.41667 8.25 8.33333 8.33333 8.16667C8.41667 8 8.33333 7.83333 8.33333 7.75C8.25 7.66667 7.75 6.33333 7.5 5.83333C7.25 5.33333 7 5.41667 6.91667 5.41667H6.41667C6.25 5.41667 6 5.5 5.75 5.75C5.5 6 4.91667 6.58333 4.91667 7.75C4.91667 8.91667 5.75 10.0833 5.91667 10.25C6 10.4167 7.58333 12.8333 10 13.8333C10.5833 14.0833 11 14.25 11.3333 14.3333C11.9167 14.5 12.4167 14.5 12.8333 14.4167C13.25 14.3333 14.25 13.8333 14.5 13.25C14.6667 12.6667 14.6667 12.25 14.6667 12.0833C14.5833 12 14.4167 11.9167 14.1667 11.8333M10 1.66667C5.41667 1.66667 1.66667 5.41667 1.66667 10C1.66667 11.4167 2 12.8333 2.75 14.0833L1.66667 18.3333L6 17.25C7.16667 17.9167 8.58333 18.25 10 18.25C14.5833 18.25 18.3333 14.5 18.3333 9.91667C18.3333 5.33333 14.5833 1.66667 10 1.66667Z" fill="var(--fill-0, #24657E)"/>
</g>
</svg>
