<svg preserveAspectRatio="none" width="100%" height="100%" overflow="visible" style="display: block;" viewBox="0 0 26.6 27.19" fill="none" xmlns="http://www.w3.org/2000/svg">
<g id="Container">
<path id="Icon" d="M13.3 20.8333L8.3 25.8333C7.78889 26.3444 7.16667 26.6 6.43333 26.6C5.7 26.6 5.07778 26.3444 4.56667 25.8333L0.766667 22.0333C0.255556 21.5222 0 20.9 0 20.1667C0 19.4333 0.255556 18.8111 0.766667 18.3L5.76667 13.3L0.766667 8.3C0.255556 7.78889 0 7.16667 0 6.43333C0 5.7 0.255556 5.07778 0.766667 4.56667L4.56667 0.766667C5.07778 0.255556 5.7 0 6.43333 0C7.16667 0 7.78889 0.255556 8.3 0.766667L13.3 5.76667L18.3 0.766667C18.8111 0.255556 19.4333 0 20.1667 0C20.9 0 21.5222 0.255556 22.0333 0.766667L25.8333 4.56667C26.3444 5.07778 26.6 5.7 26.6 6.43333C26.6 7.16667 26.3444 7.78889 25.8333 8.3L20.8333 13.3L25.8333 18.3C26.3444 18.8111 26.6 19.4333 26.6 20.1667C26.6 20.9 26.3444 21.5222 25.8333 22.0333L22.0333 25.8333C21.5222 26.3444 20.9 26.6 20.1667 26.6C19.4333 26.6 18.8111 26.3444 18.3 25.8333L13.3 20.8333V20.8333M13.3 11.9667C13.6778 11.9667 13.9944 11.8389 14.25 11.5833C14.5056 11.3278 14.6333 11.0111 14.6333 10.6333C14.6333 10.2556 14.5056 9.93889 14.25 9.68333C13.9944 9.42778 13.6778 9.3 13.3 9.3C12.9222 9.3 12.6056 9.42778 12.35 9.68333C12.0944 9.93889 11.9667 10.2556 11.9667 10.6333C11.9667 11.0111 12.0944 11.3278 12.35 11.5833C12.6056 11.8389 12.9222 11.9667 13.3 11.9667V11.9667M7.63333 11.4333L11.4333 7.63333L6.43333 2.63333V2.63333V2.63333L2.63333 6.43333V6.43333V6.43333L7.63333 11.4333V11.4333M10.6333 14.6333C11.0111 14.6333 11.3278 14.5056 11.5833 14.25C11.8389 13.9944 11.9667 13.6778 11.9667 13.3C11.9667 12.9222 11.8389 12.6056 11.5833 12.35C11.3278 12.0944 11.0111 11.9667 10.6333 11.9667C10.2556 11.9667 9.93889 12.0944 9.68333 12.35C9.42778 12.6056 9.3 12.9222 9.3 13.3C9.3 13.6778 9.42778 13.9944 9.68333 14.25C9.93889 14.5056 10.2556 14.6333 10.6333 14.6333V14.6333M13.3 17.3C13.6778 17.3 13.9944 17.1722 14.25 16.9167C14.5056 16.6611 14.6333 16.3444 14.6333 15.9667C14.6333 15.5889 14.5056 15.2722 14.25 15.0167C13.9944 14.7611 13.6778 14.6333 13.3 14.6333C12.9222 14.6333 12.6056 14.7611 12.35 15.0167C12.0944 15.2722 11.9667 15.5889 11.9667 15.9667C11.9667 16.3444 12.0944 16.6611 12.35 16.9167C12.6056 17.1722 12.9222 17.3 13.3 17.3V17.3M15.9667 14.6333C16.3444 14.6333 16.6611 14.5056 16.9167 14.25C17.1722 13.9944 17.3 13.6778 17.3 13.3C17.3 12.9222 17.1722 12.6056 16.9167 12.35C16.6611 12.0944 16.3444 11.9667 15.9667 11.9667C15.5889 11.9667 15.2722 12.0944 15.0167 12.35C14.7611 12.6056 14.6333 12.9222 14.6333 13.3C14.6333 13.6778 14.7611 13.9944 15.0167 14.25C15.2722 14.5056 15.5889 14.6333 15.9667 14.6333V14.6333M15.1667 18.9667L20.1667 23.9667V23.9667V23.9667L23.9667 20.1667V20.1667V20.1667L18.9667 15.1667L15.1667 18.9667V18.9667M8.6 8.6V8.6V8.6V8.6V8.6V8.6V8.6V8.6V8.6V8.6V8.6V8.6V8.6V8.6V8.6V8.6V8.6V8.6M18 18V18V18V18V18V18V18V18V18V18V18V18V18V18V18V18V18V18" fill="var(--fill-0, #24667F)"/>
</g>
</svg>
