<svg preserveAspectRatio="none" width="100%" height="100%" overflow="visible" style="display: block;" viewBox="0 0 20 20" fill="none" xmlns="http://www.w3.org/2000/svg">
<g id="SVG">
<path id="Vector" d="M16.6667 8.33333C16.6667 14.1667 10 18.3333 10 18.3333C10 18.3333 3.33333 14.1667 3.33333 8.33333C3.33333 6.56522 4.03571 4.86953 5.28595 3.61929C6.5362 2.36905 8.23189 1.66667 10 1.66667C11.7681 1.66667 13.4638 2.36905 14.714 3.61929C15.9643 4.86953 16.6667 6.56522 16.6667 8.33333Z" stroke="var(--stroke-0, #24657E)" stroke-width="1.5" stroke-linecap="round" stroke-linejoin="round"/>
<path id="Vector_2" d="M10 10.8333C11.3807 10.8333 12.5 9.71405 12.5 8.33333C12.5 6.95262 11.3807 5.83333 10 5.83333C8.61929 5.83333 7.5 6.95262 7.5 8.33333C7.5 9.71405 8.61929 10.8333 10 10.8333Z" stroke="var(--stroke-0, #24657E)" stroke-width="1.5" stroke-linecap="round" stroke-linejoin="round"/>
</g>
</svg>
