<svg preserveAspectRatio="none" width="100%" height="100%" overflow="visible" style="display: block;" viewBox="0 0 26.4 26.99" fill="none" xmlns="http://www.w3.org/2000/svg">
<g id="Container">
<path id="Icon" d="M15.0667 26.4L13.2 24.5333L17.9333 19.8L6.6 8.46667L1.86667 13.2L0 11.3333L1.86667 9.4L0 7.53333L2.8 4.73333L0.933333 2.8L2.8 0.933333L4.73333 2.8L7.53333 0L9.4 1.86667L11.3333 0L13.2 1.86667L8.46667 6.6L19.8 17.9333L24.5333 13.2L26.4 15.0667L24.5333 17L26.4 18.8667L23.6 21.6667L25.4667 23.6L23.6 25.4667L21.6667 23.6L18.8667 26.4L17 24.5333L15.0667 26.4V26.4" fill="var(--fill-0, #24667F)"/>
</g>
</svg>
