<svg preserveAspectRatio="none" width="100%" height="100%" overflow="visible" style="display: block;" viewBox="0 0 24 27.2598" fill="none" xmlns="http://www.w3.org/2000/svg">
<g id="Container">
<path id="Icon" d="M12.0333 20.1333V20.1333V20.1333V20.1333V20.1333V20.1333V20.1333V20.1333V20.1333V20.1333V20.1333M0 24V18.6667C0 16.8222 0.65 15.25 1.95 13.95C3.25 12.65 4.82222 12 6.66667 12H20.9667C21.8111 12 22.5278 12.2889 23.1167 12.8667C23.7056 13.4444 24 14.1556 24 15C24 15.6889 23.7889 16.3056 23.3667 16.85C22.9444 17.3944 22.4111 17.7556 21.7667 17.9333L18.6667 18.8333V24C18.6667 24.4667 18.5611 24.8889 18.35 25.2667C18.1389 25.6444 17.8556 25.9556 17.5 26.2C17.1444 26.4444 16.7556 26.5944 16.3333 26.65C15.9111 26.7056 15.4778 26.6444 15.0333 26.4667L8.73333 24V24V24H0V24M16 20H8.5C8.34444 20 8.22778 20.0444 8.15 20.1333C8.07222 20.2222 8.02222 20.3222 8 20.4333C7.97778 20.5444 7.99444 20.65 8.05 20.75C8.10556 20.85 8.2 20.9222 8.33333 20.9667L16 24V24V24V20V20M2.66667 21.3333H5.46667C5.42222 21.2 5.38889 21.0667 5.36667 20.9333C5.34444 20.8 5.33333 20.6556 5.33333 20.5C5.33333 19.6333 5.64444 18.8889 6.26667 18.2667C6.88889 17.6444 7.63333 17.3333 8.5 17.3333H13.9333L21.0667 15.3667C21.1778 15.3222 21.2556 15.2667 21.3 15.2C21.3444 15.1333 21.3556 15.0556 21.3333 14.9667C21.3111 14.8778 21.2722 14.8056 21.2167 14.75C21.1611 14.6944 21.0778 14.6667 20.9667 14.6667H6.66667C5.55556 14.6667 4.61111 15.0556 3.83333 15.8333C3.05556 16.6111 2.66667 17.5556 2.66667 18.6667V21.3333V21.3333M9.33333 10.6667C7.86667 10.6667 6.61111 10.1444 5.56667 9.1C4.52222 8.05556 4 6.8 4 5.33333C4 3.86667 4.52222 2.61111 5.56667 1.56667C6.61111 0.522222 7.86667 0 9.33333 0C10.8 0 12.0556 0.522222 13.1 1.56667C14.1444 2.61111 14.6667 3.86667 14.6667 5.33333C14.6667 6.8 14.1444 8.05556 13.1 9.1C12.0556 10.1444 10.8 10.6667 9.33333 10.6667V10.6667M9.33333 8C10.0667 8 10.6944 7.73889 11.2167 7.21667C11.7389 6.69444 12 6.06667 12 5.33333C12 4.6 11.7389 3.97222 11.2167 3.45C10.6944 2.92778 10.0667 2.66667 9.33333 2.66667C8.6 2.66667 7.97222 2.92778 7.45 3.45C6.92778 3.97222 6.66667 4.6 6.66667 5.33333C6.66667 6.06667 6.92778 6.69444 7.45 7.21667C7.97222 7.73889 8.6 8 9.33333 8V8M12.0333 20.1333V20.1333V20.1333V20.1333V20.1333V20.1333V20.1333V20.1333V20.1333V20.1333V20.1333V20.1333V20.1333V20.1333V20.1333M9.33333 5.33333V5.33333V5.33333V5.33333V5.33333V5.33333V5.33333V5.33333V5.33333V5.33333" fill="var(--fill-0, #24667F)"/>
</g>
</svg>
