<svg preserveAspectRatio="none" width="100%" height="100%" overflow="visible" style="display: block;" viewBox="0 0 20 20" fill="none" xmlns="http://www.w3.org/2000/svg">
<g id="SVG">
<path id="Vector" d="M13.3333 2.5H6.66667C4.36548 2.5 2.5 4.36548 2.5 6.66667V13.3333C2.5 15.6345 4.36548 17.5 6.66667 17.5H13.3333C15.6345 17.5 17.5 15.6345 17.5 13.3333V6.66667C17.5 4.36548 15.6345 2.5 13.3333 2.5Z" stroke="var(--stroke-0, #24657E)" stroke-width="1.5" stroke-linecap="round" stroke-linejoin="round"/>
<path id="Vector_2" d="M10 12.9167C11.6108 12.9167 12.9167 11.6108 12.9167 10C12.9167 8.38917 11.6108 7.08333 10 7.08333C8.38917 7.08333 7.08333 8.38917 7.08333 10C7.08333 11.6108 8.38917 12.9167 10 12.9167Z" stroke="var(--stroke-0, #24657E)" stroke-width="1.5" stroke-linecap="round" stroke-linejoin="round"/>
<path id="Vector_3" d="M14.5833 6.25C15.0436 6.25 15.4167 5.8769 15.4167 5.41667C15.4167 4.95643 15.0436 4.58333 14.5833 4.58333C14.1231 4.58333 13.75 4.95643 13.75 5.41667C13.75 5.8769 14.1231 6.25 14.5833 6.25Z" fill="var(--fill-0, #24657E)" stroke="var(--stroke-0, #24657E)" stroke-width="1.5" stroke-linecap="round" stroke-linejoin="round"/>
</g>
</svg>
