<svg width="157" height="77" viewBox="0 0 157 77" fill="none" xmlns="http://www.w3.org/2000/svg">
<path d="M42.6122 52.0634C41.6813 52.9734 36.563 52.7667 35.2523 52.3715C32.9846 51.6881 33.0607 50.8805 32.0365 49.1466C31.9649 49.0261 32.0311 48.7514 31.6939 48.8919C31.441 48.9971 30.0262 50.4074 29.524 50.7482C23.6869 54.7109 15.2395 53.8734 9.46946 50.1817C1.70088 45.2111 -1.74246 36.0367 0.856133 27.1125C4.56141 14.387 20.8418 8.67767 31.7283 16.2623C32.6954 15.771 33.2964 14.9344 34.3333 14.5039C37.6398 13.1316 41.4502 14.2338 41.8508 18.2028C42.623 25.8581 41.2843 34.7714 41.8444 42.56C42.1499 44.0655 41.907 45.6444 42.0783 47.1562C42.197 48.2004 43.3182 51.3745 42.6112 52.0652L42.6122 52.0634ZM28.4581 25.2517C21.334 18.1484 9.80754 23.8051 10.4484 33.7037C10.9532 41.4968 19.3245 46.1157 26.1586 42.1512C31.993 38.7668 33.2656 30.0456 28.4572 25.2517H28.4581Z" fill="white"/>
<path d="M129.481 23.6015C127.106 26.0723 132.695 27.2778 134.198 27.701C142.763 30.112 159.968 32.3073 155.72 45.7144C151.819 58.0285 129.992 54.3178 121.358 49.5983C120.121 48.923 117.557 47.7067 117.744 46.1912C117.845 45.3655 120.331 41.4744 120.99 40.7692C122.573 39.0752 123.765 40.6006 125.25 41.2777C130.012 43.4485 136.238 45.4996 141.496 44.3712C144.124 43.8074 146.557 41.7862 143.231 39.9997C136.639 36.4576 119.203 36.8763 118.144 26.4475C116.6 11.2647 140.507 11.7941 149.814 16.5118C151.359 17.2949 153.189 18.0889 152.434 20.0865C152.12 20.9168 149.897 24.6003 149.306 25.213C148.736 25.804 148.274 25.8493 147.471 25.6988C146.077 25.4378 143.613 23.9269 141.888 23.432C138.969 22.5954 134.961 22.1893 131.949 22.5474C131.259 22.6298 129.958 23.1039 129.481 23.6006V23.6015Z" fill="white"/>
<path d="M109.231 51.6365C107.272 53.4665 99.8084 53.4157 99.6634 49.5709L99.658 17.6119C100.64 12.577 109.268 12.3032 110.289 17.4107C110.705 19.4935 110.273 21.2791 110.298 23.2188C110.383 29.9804 110.341 36.5951 110.298 43.3458C110.287 45.038 110.583 47.0602 110.522 48.5892C110.486 49.492 109.886 51.0247 109.23 51.6365H109.231Z" fill="white"/>
<path d="M70.5904 7.31723C80.2714 5.98938 80.9322 19.6784 72.1711 20.1715C63.623 20.6528 62.6994 8.39944 70.5904 7.31723Z" fill="#F7DF4D"/>
<path d="M91.8341 65.7985C90.034 65.7985 87.4916 64.8975 84.5368 61.2838C83.0685 59.4502 82.0461 57.3338 81.0572 55.2872C79.9415 52.9786 78.8874 50.7979 77.293 49.1184L77.2604 49.0821C74.0772 45.4783 68.8719 44.8928 65.1503 47.7198L65.1095 47.7497C63.0629 49.1881 61.6725 51.465 60.2014 53.8759C59.8924 54.3817 59.5842 54.8875 59.2697 55.3842C55.2671 61.6817 50.7125 61.9309 48.0279 60.2333C43.9627 57.6628 42.6113 50.0646 47.5167 42.2716C49.6648 38.8572 51.4431 35.5009 49.6403 31.9932C45.5489 24.7222 42.2243 18.0105 42.9421 9.53312C43.205 4.97403 45.4265 1.2479 48.4729 0.256321C49.8841 -0.202307 52.6857 -0.439778 55.6016 3.12683C57.5811 5.65381 58.4286 8.94397 59.1772 11.8471C61.1015 20.0788 63.9575 24.4104 68.1712 25.509C70.6248 26.1425 73.498 25.5117 75.6652 23.8603C77.9837 22.1191 79.2653 19.3619 80.5043 16.6962C81.5512 14.4439 82.6343 12.1145 84.3447 10.4322L84.3936 10.386C87.072 8.00134 90.073 7.49014 92.629 8.98204C95.9173 10.9008 97.4953 15.5687 96.4702 20.3381C96.0261 22.7563 95.0889 25.1655 93.433 28.1474C93.219 28.5345 92.9988 28.9215 92.7785 29.3076C91.6981 31.2065 90.6776 33.0002 90.4546 34.7078C90.1219 37.1976 91.3882 39.2896 92.8538 41.7123C93.1882 42.2652 93.5336 42.8371 93.8671 43.4254C95.466 46.1717 96.5201 48.6298 97.1772 51.1468V51.1486L97.2116 51.281C98.9456 57.6764 97.6757 63.431 94.1191 65.2601C93.6351 65.5093 92.8538 65.7976 91.835 65.7976L91.8341 65.7985ZM79.2699 47.2757C81.1443 49.2579 82.337 51.7251 83.49 54.1116C84.4562 56.1111 85.3689 58 86.6378 59.5843C89.0071 62.4811 91.2857 63.6793 92.8819 62.8582C94.8949 61.8222 96.0877 57.4679 94.5995 51.9753L94.5614 51.8302C93.9686 49.557 93.0033 47.3147 91.5232 44.7714C91.2005 44.2021 90.8652 43.6474 90.5407 43.1109C88.9554 40.4914 87.3176 37.7814 87.7753 34.3534C88.0663 32.1237 89.2681 30.0128 90.4292 27.9707C90.644 27.5936 90.8588 27.2157 91.0682 26.8368C92.5819 24.1131 93.4284 21.9532 93.8145 19.8314L93.8236 19.7879C94.7046 15.7192 93.2027 12.4462 91.2658 11.3151C89.773 10.444 87.9793 10.8229 86.2145 12.3819C84.8658 13.7206 83.9368 15.7192 82.9543 17.8347C81.6391 20.6653 80.1481 23.873 77.2949 26.0147C74.4914 28.1511 70.7327 28.9623 67.4915 28.1248C60.5386 26.312 57.9183 18.335 56.5524 12.4915C55.878 9.87483 55.1049 6.87561 53.4915 4.81451C52.5144 3.61899 50.9781 2.28117 49.3086 2.82591C47.3716 3.45584 45.8281 6.34901 45.6386 9.70443L45.6359 9.7434C44.977 17.4712 48.1312 23.8013 52.0069 30.6889L52.0295 30.7306C54.503 35.5091 52.1773 39.9358 49.8034 43.71C45.5589 50.4535 46.884 56.3114 49.4717 57.9483C51.6561 59.3296 54.5366 57.7933 56.9874 53.9367C57.2929 53.4536 57.5938 52.9605 57.8956 52.4674C59.4419 49.9341 61.0407 47.3147 63.536 45.5527C68.3879 41.8818 75.144 42.6205 79.2699 47.2748V47.2757Z" fill="white"/>
<path d="M70.1925 5.76629C80.8561 4.3043 81.5839 19.3819 71.9337 19.9249C62.5182 20.4542 61.5003 6.95818 70.1925 5.76629Z" fill="#F7DF4D"/>
<path d="M4.65139 73.5915H3.54596C3.52577 73.4494 3.48455 73.3232 3.42229 73.2128C3.36004 73.1008 3.28012 73.0055 3.18253 72.9269C3.08494 72.8483 2.97221 72.7881 2.84434 72.7463C2.71815 72.7045 2.58102 72.6836 2.43296 72.6836C2.16543 72.6836 1.9324 72.7497 1.73386 72.8818C1.53532 73.0122 1.38137 73.2028 1.272 73.4536C1.16264 73.7027 1.10795 74.0054 1.10795 74.3615C1.10795 74.7277 1.16264 75.0353 1.272 75.2845C1.38305 75.5336 1.53784 75.7217 1.73638 75.8488C1.93492 75.9758 2.16459 76.0394 2.42538 76.0394C2.57177 76.0394 2.70721 76.0202 2.83172 75.9817C2.95791 75.9432 3.0698 75.8872 3.16739 75.8137C3.26497 75.7384 3.34574 75.6473 3.40967 75.5403C3.47529 75.4333 3.52072 75.3112 3.54596 75.1741L4.65139 75.1791C4.62279 75.4149 4.55128 75.6423 4.43686 75.8613C4.32413 76.0787 4.17186 76.2735 3.98005 76.4457C3.78993 76.6162 3.56278 76.7517 3.29862 76.852C3.03615 76.9506 2.73918 77 2.40772 77C1.9467 77 1.53448 76.8963 1.17105 76.689C0.809303 76.4816 0.523271 76.1815 0.312953 75.7886C0.104318 75.3957 0 74.92 0 74.3615C0 73.8014 0.106 73.3248 0.318001 72.9319C0.530001 72.539 0.817716 72.2397 1.18114 72.034C1.54457 71.8267 1.95343 71.723 2.40772 71.723C2.70721 71.723 2.98483 71.7648 3.24058 71.8484C3.49801 71.932 3.72599 72.0541 3.92453 72.2146C4.12307 72.3735 4.28459 72.5683 4.4091 72.799C4.53529 73.0297 4.61606 73.2939 4.65139 73.5915Z" fill="white"/>
<path d="M5.43503 76.9297V71.7933H6.52784V76.0344H8.74375V76.9297H5.43503Z" fill="white"/>
<path d="M10.5603 71.7933V76.9297H9.46745V71.7933H10.5603ZM9.6315 71.2967L10.1666 70.1555H11.1609L10.3912 71.2967H9.6315Z" fill="white"/>
<path d="M15.7827 71.7933V76.9297H14.8388L12.59 73.6969H12.5522V76.9297H11.4594V71.7933H12.4184L14.6495 75.0236H14.6949V71.7933H15.7827Z" fill="white"/>
<path d="M17.7784 71.7933V76.9297H16.6856V71.7933H17.7784Z" fill="white"/>
<path d="M23.238 73.5915H22.1326C22.1124 73.4494 22.0712 73.3232 22.0089 73.2128C21.9467 73.1008 21.8667 73.0055 21.7692 72.9269C21.6716 72.8483 21.5588 72.7881 21.431 72.7463C21.3048 72.7045 21.1676 72.6836 21.0196 72.6836C20.7521 72.6836 20.519 72.7497 20.3205 72.8818C20.1219 73.0122 19.968 73.2028 19.8586 73.4536C19.7493 73.7027 19.6946 74.0054 19.6946 74.3615C19.6946 74.7277 19.7493 75.0353 19.8586 75.2845C19.9697 75.5336 20.1245 75.7217 20.323 75.8488C20.5215 75.9758 20.7512 76.0394 21.012 76.0394C21.1584 76.0394 21.2938 76.0202 21.4183 75.9817C21.5445 75.9432 21.6564 75.8872 21.754 75.8137C21.8516 75.7384 21.9324 75.6473 21.9963 75.5403C22.0619 75.4333 22.1073 75.3112 22.1326 75.1741L23.238 75.1791C23.2094 75.4149 23.1379 75.6423 23.0235 75.8613C22.9108 76.0787 22.7585 76.2735 22.5667 76.4457C22.3766 76.6162 22.1494 76.7517 21.8852 76.852C21.6228 76.9506 21.3258 77 20.9943 77C20.5333 77 20.1211 76.8963 19.7577 76.689C19.3959 76.4816 19.1099 76.1815 18.8996 75.7886C18.6909 75.3957 18.5866 74.92 18.5866 74.3615C18.5866 73.8014 18.6926 73.3248 18.9046 72.9319C19.1166 72.539 19.4043 72.2397 19.7678 72.034C20.1312 71.8267 20.5401 71.723 20.9943 71.723C21.2938 71.723 21.5715 71.7648 21.8272 71.8484C22.0846 71.932 22.3126 72.0541 22.5112 72.2146C22.7097 72.3735 22.8712 72.5683 22.9957 72.799C23.1219 73.0297 23.2027 73.2939 23.238 73.5915Z" fill="white"/>
<path d="M24.8154 76.9297H23.6443L25.4287 71.7933H26.837L28.6188 76.9297H27.4477L26.153 72.967H26.1126L24.8154 76.9297ZM24.7422 74.9108H27.5083V75.7585H24.7422V74.9108Z" fill="white"/>
<path d="M32.7181 76.9297H30.8858V71.7933H32.7332C33.2531 71.7933 33.7007 71.8961 34.0759 72.1018C34.4511 72.3057 34.7397 72.5992 34.9416 72.9821C35.1452 73.365 35.2469 73.8231 35.2469 74.3565C35.2469 74.8915 35.1452 75.3513 34.9416 75.7359C34.7397 76.1205 34.4494 76.4156 34.0709 76.6212C33.694 76.8269 33.243 76.9297 32.7181 76.9297ZM31.9786 75.9993H32.6727C32.9957 75.9993 33.2674 75.9424 33.4879 75.8287C33.7099 75.7133 33.8765 75.5353 33.9876 75.2945C34.1003 75.0521 34.1567 74.7394 34.1567 74.3565C34.1567 73.9769 34.1003 73.6668 33.9876 73.426C33.8765 73.1852 33.7108 73.008 33.4904 72.8943C33.27 72.7806 32.9982 72.7238 32.6752 72.7238H31.9786V75.9993Z" fill="white"/>
<path d="M36.0565 76.9297V71.7933H39.5393V72.6886H37.1493V73.9126H39.3601V74.8079H37.1493V76.0344H39.5494V76.9297H36.0565Z" fill="white"/>
<path d="M42.053 76.9297V71.7933H44.0923C44.4826 71.7933 44.8158 71.8627 45.0917 72.0014C45.3693 72.1385 45.5805 72.3333 45.7252 72.5858C45.8716 72.8366 45.9448 73.1317 45.9448 73.4711C45.9448 73.8122 45.8707 74.1057 45.7227 74.3515C45.5746 74.5956 45.3601 74.7829 45.0791 74.9133C44.7998 75.0437 44.4616 75.1089 44.0645 75.1089H42.6991V74.2361H43.8879C44.0965 74.2361 44.2698 74.2077 44.4078 74.1508C44.5457 74.094 44.6484 74.0087 44.7157 73.895C44.7846 73.7813 44.8191 73.64 44.8191 73.4711C44.8191 73.3006 44.7846 73.1568 44.7157 73.0398C44.6484 72.9227 44.5449 72.8341 44.4052 72.7739C44.2673 72.712 44.0931 72.6811 43.8828 72.6811H43.1459V76.9297H42.053ZM44.8444 74.5922L46.129 76.9297H44.9226L43.6658 74.5922H44.8444Z" fill="white"/>
<path d="M46.717 76.9297V71.7933H50.1999V72.6886H47.8099V73.9126H50.0207V74.8079H47.8099V76.0344H50.21V76.9297H46.717Z" fill="white"/>
<path d="M51.0687 76.9297V71.7933H52.1616V73.9126H54.38V71.7933H55.4703V76.9297H54.38V74.8079H52.1616V76.9297H51.0687Z" fill="white"/>
<path d="M57.2622 76.9297H56.0911L57.8755 71.7933H59.2838L61.0656 76.9297H59.8945L58.5998 72.967H58.5594L57.2622 76.9297ZM57.189 74.9108H59.9551V75.7585H57.189V74.9108Z" fill="white"/>
<path d="M61.6877 76.9297V71.7933H63.7572C64.1375 71.7933 64.4546 71.8493 64.7087 71.9613C64.9627 72.0733 65.1537 72.2288 65.2816 72.4278C65.4095 72.6251 65.4734 72.8525 65.4734 73.11C65.4734 73.3106 65.433 73.487 65.3523 73.6392C65.2715 73.7897 65.1604 73.9134 65.0191 74.0104C64.8795 74.1057 64.7196 74.1734 64.5396 74.2135V74.2637C64.7365 74.272 64.9207 74.3272 65.0923 74.4292C65.2656 74.5312 65.4061 74.6742 65.5138 74.8581C65.6215 75.0403 65.6753 75.2577 65.6753 75.5102C65.6753 75.7827 65.6072 76.026 65.4709 76.24C65.3363 76.4524 65.1369 76.6204 64.8727 76.7441C64.6086 76.8679 64.283 76.9297 63.896 76.9297H61.6877ZM62.7805 76.0419H63.6714C63.9759 76.0419 64.198 75.9842 64.3377 75.8688C64.4773 75.7518 64.5472 75.5963 64.5472 75.4023C64.5472 75.2602 64.5127 75.1348 64.4437 75.0261C64.3747 74.9175 64.2763 74.8322 64.1484 74.7703C64.0222 74.7084 63.8716 74.6775 63.6966 74.6775H62.7805V76.0419ZM62.7805 73.9427H63.5906C63.7404 73.9427 63.8733 73.9167 63.9894 73.8649C64.1072 73.8114 64.1997 73.7362 64.267 73.6392C64.336 73.5422 64.3705 73.426 64.3705 73.2906C64.3705 73.105 64.304 72.9553 64.1711 72.8416C64.0399 72.7279 63.8531 72.6711 63.6108 72.6711H62.7805V73.9427Z" fill="white"/>
<path d="M67.4792 71.7933V76.9297H66.3864V71.7933H67.4792Z" fill="white"/>
<path d="M68.3783 76.9297V71.7933H69.4711V76.0344H71.687V76.9297H68.3783Z" fill="white"/>
<path d="M73.5035 71.7933V76.9297H72.4107V71.7933H73.5035Z" fill="white"/>
<path d="M74.2058 72.6886V71.7933H78.4509V72.6886H76.8684V76.9297H75.7882V72.6886H74.2058Z" fill="white"/>
<path d="M79.4093 76.9297H78.2382L80.0226 71.7933H81.4308L83.2127 76.9297H82.0416L80.7469 72.967H80.7065L79.4093 76.9297ZM79.3361 74.9108H82.1022V75.7585H79.3361V74.9108Z" fill="white"/>
<path d="M88.1524 73.5915H87.047C87.0268 73.4494 86.9855 73.3232 86.9233 73.2128C86.861 73.1008 86.7811 73.0055 86.6835 72.9269C86.5859 72.8483 86.4732 72.7881 86.3453 72.7463C86.2191 72.7045 86.082 72.6836 85.934 72.6836C85.6664 72.6836 85.4334 72.7497 85.2349 72.8818C85.0363 73.0122 84.8824 73.2028 84.773 73.4536C84.6636 73.7027 84.609 74.0054 84.609 74.3615C84.609 74.7277 84.6636 75.0353 84.773 75.2845C84.884 75.5336 85.0388 75.7217 85.2374 75.8488C85.4359 75.9758 85.6656 76.0394 85.9264 76.0394C86.0728 76.0394 86.2082 76.0202 86.3327 75.9817C86.4589 75.9432 86.5708 75.8872 86.6684 75.8137C86.766 75.7384 86.8467 75.6473 86.9107 75.5403C86.9763 75.4333 87.0217 75.3112 87.047 75.1741L88.1524 75.1791C88.1238 75.4149 88.0523 75.6423 87.9379 75.8613C87.8251 76.0787 87.6729 76.2735 87.481 76.4457C87.2909 76.6162 87.0638 76.7517 86.7996 76.852C86.5371 76.9506 86.2402 77 85.9087 77C85.4477 77 85.0355 76.8963 84.672 76.689C84.3103 76.4816 84.0243 76.1815 83.8139 75.7886C83.6053 75.3957 83.501 74.92 83.501 74.3615C83.501 73.8014 83.607 73.3248 83.819 72.9319C84.031 72.539 84.3187 72.2397 84.6821 72.034C85.0456 71.8267 85.4544 71.723 85.9087 71.723C86.2082 71.723 86.4858 71.7648 86.7416 71.8484C86.999 71.932 87.227 72.0541 87.4255 72.2146C87.6241 72.3735 87.7856 72.5683 87.9101 72.799C88.0363 73.0297 88.1171 73.2939 88.1524 73.5915Z" fill="white"/>
<path d="M90.0288 71.7933V76.9297H88.936V71.7933H90.0288Z" fill="white"/>
<path d="M95.6778 74.3615C95.6778 74.9216 95.5709 75.3982 95.3572 75.7911C95.1452 76.184 94.8558 76.4841 94.4891 76.6915C94.1239 76.8971 93.7134 77 93.2574 77C92.7981 77 92.3859 76.8963 92.0208 76.689C91.6557 76.4816 91.3671 76.1815 91.1551 75.7886C90.9431 75.3957 90.8371 74.92 90.8371 74.3615C90.8371 73.8014 90.9431 73.3248 91.1551 72.9319C91.3671 72.539 91.6557 72.2397 92.0208 72.034C92.3859 71.8267 92.7981 71.723 93.2574 71.723C93.7134 71.723 94.1239 71.8267 94.4891 72.034C94.8558 72.2397 95.1452 72.539 95.3572 72.9319C95.5709 73.3248 95.6778 73.8014 95.6778 74.3615ZM94.5698 74.3615C94.5698 73.9987 94.5151 73.6927 94.4058 73.4436C94.2981 73.1944 94.1458 73.0055 93.949 72.8767C93.7521 72.748 93.5216 72.6836 93.2574 72.6836C92.9933 72.6836 92.7628 72.748 92.5659 72.8767C92.369 73.0055 92.2159 73.1944 92.1066 73.4436C91.9989 73.6927 91.9451 73.9987 91.9451 74.3615C91.9451 74.7243 91.9989 75.0303 92.1066 75.2794C92.2159 75.5286 92.369 75.7175 92.5659 75.8463C92.7628 75.975 92.9933 76.0394 93.2574 76.0394C93.5216 76.0394 93.7521 75.975 93.949 75.8463C94.1458 75.7175 94.2981 75.5286 94.4058 75.2794C94.5151 75.0303 94.5698 74.7243 94.5698 74.3615ZM92.8713 71.2967L93.4063 70.1555H94.4007L93.631 71.2967H92.8713Z" fill="white"/>
<path d="M100.811 71.7933V76.9297H99.8667L97.618 73.6969H97.5801V76.9297H96.4873V71.7933H97.4463L99.6774 75.0236H99.7228V71.7933H100.811Z" fill="white"/>
<path d="M103.056 71.7933H104.28L105.458 74.0054H105.509L106.687 71.7933H107.911L106.026 75.1139V76.9297H104.941V75.1139L103.056 71.7933Z" fill="white"/>
<path d="M110.153 71.7933H111.501L112.924 75.2443H112.985L114.408 71.7933H115.756V76.9297H114.696V73.5865H114.653L113.315 76.9047H112.594L111.256 73.574H111.213V76.9297H110.153V71.7933Z" fill="white"/>
<path d="M121.406 74.3615C121.406 74.9216 121.299 75.3982 121.086 75.7911C120.874 76.184 120.584 76.4841 120.217 76.6915C119.852 76.8971 119.442 77 118.986 77C118.526 77 118.114 76.8963 117.749 76.689C117.384 76.4816 117.095 76.1815 116.883 75.7886C116.671 75.3957 116.565 74.92 116.565 74.3615C116.565 73.8014 116.671 73.3248 116.883 72.9319C117.095 72.539 117.384 72.2397 117.749 72.034C118.114 71.8267 118.526 71.723 118.986 71.723C119.442 71.723 119.852 71.8267 120.217 72.034C120.584 72.2397 120.874 72.539 121.086 72.9319C121.299 73.3248 121.406 73.8014 121.406 74.3615ZM120.298 74.3615C120.298 73.9987 120.244 73.6927 120.134 73.4436C120.026 73.1944 119.874 73.0055 119.677 72.8767C119.48 72.748 119.25 72.6836 118.986 72.6836C118.722 72.6836 118.491 72.748 118.294 72.8767C118.097 73.0055 117.944 73.1944 117.835 73.4436C117.727 73.6927 117.673 73.9987 117.673 74.3615C117.673 74.7243 117.727 75.0303 117.835 75.2794C117.944 75.5286 118.097 75.7175 118.294 75.8463C118.491 75.975 118.722 76.0394 118.986 76.0394C119.25 76.0394 119.48 75.975 119.677 75.8463C119.874 75.7175 120.026 75.5286 120.134 75.2794C120.244 75.0303 120.298 74.7243 120.298 74.3615Z" fill="white"/>
<path d="M122.858 71.7933L124.107 75.6958H124.155L125.407 71.7933H126.618L124.837 76.9297H123.428L121.644 71.7933H122.858Z" fill="white"/>
<path d="M128.333 71.7933V76.9297H127.241V71.7933H128.333Z" fill="white"/>
<path d="M129.232 71.7933H130.58L132.004 75.2443H132.064L133.488 71.7933H134.835V76.9297H133.775V73.5865H133.732L132.395 76.9047H131.673L130.335 73.574H130.293V76.9297H129.232V71.7933Z" fill="white"/>
<path d="M136.829 71.7933V76.9297H135.736V71.7933H136.829Z" fill="white"/>
<path d="M137.728 76.9297V71.7933H141.211V72.6886H138.82V73.9126H141.031V74.8079H138.82V76.0344H141.221V76.9297H137.728Z" fill="white"/>
<path d="M146.403 71.7933V76.9297H145.459L143.21 73.6969H143.172V76.9297H142.079V71.7933H143.038L145.269 75.0236H145.315V71.7933H146.403Z" fill="white"/>
<path d="M147.109 72.6886V71.7933H151.354V72.6886H149.771V76.9297H148.691V72.6886H147.109Z" fill="white"/>
<path d="M156.567 74.3615C156.567 74.9216 156.46 75.3982 156.246 75.7911C156.034 76.184 155.745 76.4841 155.378 76.6915C155.013 76.8971 154.602 77 154.146 77C153.687 77 153.275 76.8963 152.91 76.689C152.545 76.4816 152.256 76.1815 152.044 75.7886C151.832 75.3957 151.726 74.92 151.726 74.3615C151.726 73.8014 151.832 73.3248 152.044 72.9319C152.256 72.539 152.545 72.2397 152.91 72.034C153.275 71.8267 153.687 71.723 154.146 71.723C154.602 71.723 155.013 71.8267 155.378 72.034C155.745 72.2397 156.034 72.539 156.246 72.9319C156.46 73.3248 156.567 73.8014 156.567 74.3615ZM155.459 74.3615C155.459 73.9987 155.404 73.6927 155.295 73.4436C155.187 73.1944 155.035 73.0055 154.838 72.8767C154.641 72.748 154.41 72.6836 154.146 72.6836C153.882 72.6836 153.652 72.748 153.455 72.8767C153.258 73.0055 153.105 73.1944 152.995 73.4436C152.888 73.6927 152.834 73.9987 152.834 74.3615C152.834 74.7243 152.888 75.0303 152.995 75.2794C153.105 75.5286 153.258 75.7175 153.455 75.8463C153.652 75.975 153.882 76.0394 154.146 76.0394C154.41 76.0394 154.641 75.975 154.838 75.8463C155.035 75.7175 155.187 75.5286 155.295 75.2794C155.404 75.0303 155.459 74.7243 155.459 74.3615Z" fill="white"/>
</svg>
