<svg preserveAspectRatio="none" width="100%" height="100%" overflow="visible" style="display: block;" viewBox="0 0 552 466" fill="none" xmlns="http://www.w3.org/2000/svg">
<g id="Mask group 1 [Vectorized]">
<g id="Vector">
<mask id="path-1-outside-1_0_56" maskUnits="userSpaceOnUse" x="150.05" y="164.974" width="395" height="265" fill="black">
<rect fill="white" x="150.05" y="164.974" width="395" height="265"/>
<path d="M269.731 186.085C270.194 187.099 269.919 186.906 270.731 187.275C271.744 187.026 275.173 184.197 276.615 183.325C279.108 181.803 281.787 180.61 284.587 179.776C291.889 177.551 299.956 177.184 307.476 175.656C312.775 174.609 317.923 172.803 323.13 171.39C327.055 170.324 330.998 169.846 334.901 169.065C340.941 167.856 345.598 167.463 351.625 168.868C355.528 169.778 359.946 169.932 363.859 171.113C371.428 173.081 380.023 171.12 386.966 175.453C390.58 177.684 393.136 180.838 397.146 182.276C400.691 183.564 404.081 182.952 407.774 183.146C409.882 183.257 412.067 183.596 414.178 183.796C422.811 184.614 430.781 188.489 439.204 190.379C442.072 191.022 445.139 190.412 447.964 191.35C453.794 193.514 456.149 198.298 462.033 200.784C482.625 209.483 503.234 241.974 490.04 263.369C487.733 267.108 484.898 268.86 481.965 271.736C483.132 283.866 482.83 287.502 476.774 298.426C480.806 298.375 484.005 300.381 488.051 301.158C491.536 301.743 493.029 301.589 496.687 302.28C500.382 302.981 507.177 306.84 510.886 305.354C511.589 305.074 512.091 302.989 514.74 303.714C515.629 303.96 516.964 303.261 517.673 302.957C522.578 305.041 526.411 308.472 529.408 312.805C536.631 314.493 544.383 315.062 541.364 325.038C540.443 328.169 538.731 331.008 536.394 333.282C531.637 337.996 525.537 340.371 520.16 344.592C517.082 347.008 508.172 356.164 505.611 357.412C499.091 360.592 485.154 359.214 478.237 356.628C475.27 355.724 472.841 354.09 471.583 351.164C471.157 350.172 470.205 347.801 470.893 346.798C473.429 343.082 479.259 342.248 482.407 338.424C484.933 335.358 483.938 333.859 485.399 331.437L485.865 331.356C486.24 331.817 486.499 332.119 486.814 332.632L487.14 332.68C487.326 331.229 485.569 325.315 484.792 323.964C481.582 321.936 475.278 332.901 470.496 333.616L470.103 333.257C470.122 331.025 472.653 327.492 474.132 325.866C474.979 324.935 476.507 324.498 477.062 323.395L477.011 322.883C470.378 322.263 465.521 321.82 458.834 321.734L459.063 322.05C462.904 327.206 472.847 330.925 462.125 338.184C456.732 341.839 447.788 341.075 441.63 341.998C435.35 343.206 431.584 342.639 425.598 342.982C416.45 343.508 407.332 344.934 398.125 343.411C396.125 343.125 391.16 341.118 390.475 339.417C386.931 330.607 397.265 331.658 401.397 330.528C406.884 329.026 410.105 325.502 413.677 321.694C414.297 321.011 417.086 318.816 417.986 318.094C413.803 316.066 409.9 313.471 405.294 315.31C400.569 317.198 395.696 320.534 390.43 318.053C390.036 317.867 389.645 317.673 389.26 317.473C386.874 313.566 386.12 308.887 385.562 304.372C382.559 305.071 380.476 306.088 377.643 307.034C370.883 309.294 364.7 312.123 357.668 313.274L357.568 313.62C356.94 315.839 356.811 318.53 356.531 320.922C355.762 327.462 354.647 333.306 353.474 339.846C352.218 346.873 349.334 353.367 347.348 360.034C346.709 362.183 349.501 369.068 349.1 371.721C348.919 380.637 347.512 388.759 344.353 397.125C343.218 400.129 341.321 402.801 340.019 405.574C337.954 410.25 333.61 415.635 329.276 418.308C325.834 420.427 319.438 419.589 315.306 421.258C311.578 422.76 305.247 429.583 302.169 424.292L304.206 422.151L304.091 419.111C301.393 419.637 299.875 420.549 297.576 422.019C293.975 424.055 288.999 424.616 285.258 422.644C284.617 418.637 278.102 421.97 275.795 419.376L276.067 418.944C277.191 418.405 278.089 418.087 278.773 417.032C279.092 416.558 279.393 416.072 279.687 415.581C279.129 415.109 279.242 415.344 279.027 414.732C281.415 412.626 285.652 410.876 286.873 408.521C288.954 407.699 288.673 406.914 289.921 405.493C294.309 400.493 305.306 403.085 310.389 402.392C311.174 398.158 312.699 396.275 315.333 392.939C314.627 392.19 313.624 391.2 313.106 390.326C310.452 385.852 315.478 385.329 315.804 382.64C316.333 378.285 312.349 375.791 310.36 372.743C308.403 369.745 307.875 365.33 309.659 362.177C310.325 360.915 312.228 358.745 312.451 357.337C313.241 352.356 314.19 347.642 315.36 342.726C314.255 339.654 310.92 336.305 310.29 332.211C309.546 327.381 311.22 324.897 313.804 321.16C308.406 315.437 310.058 309.868 311.697 302.927C308.441 297.005 303.029 297.595 303.98 289.972C297.608 283.141 290.326 277.186 285.054 269.47C284.075 268.038 282.471 263.89 281.364 261.874C277.768 269.009 276.073 276.79 272.294 284.047C269.1 290.179 265.394 291.452 262.22 296.112C260.567 298.542 257.911 306.26 256.236 309.345C253.645 314.113 251.371 319.224 248.812 324.061C247.896 325.79 245.413 329.487 244.811 330.946C242.075 337.691 240.811 344.875 237.855 351.574C236.293 355.468 232.123 354.44 228.816 354.295C224.021 354.085 222.822 354.37 218.541 351.941C217.517 353.103 213.2 357.72 212.867 358.793C210.055 367.916 205.928 376.689 207.549 386.454C207.723 387.5 201.292 394.134 199.991 395.056C197.735 395.269 193.082 395.663 190.966 394.878C188.31 393.894 187.276 392.594 183.98 392.311C180.636 392.168 177.541 393.94 174.266 394.277C171.679 394.544 169.254 393.781 166.816 393.028C161.589 391.413 157.357 391.195 153.05 387.646C154.789 387.098 156.286 386.198 157.945 385.54C163.993 383.145 170.256 380.629 175.504 376.77C179.327 373.96 183.795 373.628 182.984 367.838C182.712 365.902 182.746 363.593 182.479 361.603C181.816 356.657 183.98 352.232 184.982 347.456C184.009 346.043 179.229 348.208 180.658 342.337C182.556 334.544 188.122 329.908 191.237 322.977C189.272 320.297 187.023 317.484 186.212 314.243C186.303 311.451 186.556 309.089 187.525 306.462C189.045 302.806 188.562 299.71 188.29 295.853C186.839 293.634 186.653 292.65 183.87 292.075C183.353 291.32 183.563 290.379 183.565 289.289C184.471 284.184 184.767 280.067 185.25 274.953C185.59 271.343 186.62 267.888 186.93 264.023L186.661 263.868C185.749 264.922 185.169 265.584 184.14 266.537L183.828 266.466C184.007 265.295 184.914 263.664 185.539 262.568C186.776 260.397 187.536 255.232 186.729 252.956C187.844 249.223 189.272 237.447 190.076 232.99C188.601 235.04 187.614 236.738 186.658 239.063L186.437 239.013L186.133 237.779C187.302 232.754 188.887 228.861 190.659 224.066C191.301 222.332 191.666 219.239 191.96 217.318C189.054 219.271 187.434 219.821 185.044 222.543L184.699 222.309C185.381 219.929 184.65 218.664 185.709 217.274C186.802 216.767 190.042 215.388 190.775 214.7C192.229 213.333 191.414 211.797 193.406 209.865C193.002 208.783 192.723 208.296 192.149 207.287C192.379 206.153 192.859 205.217 193.321 204.154C194.252 202.773 194.688 202.225 195.208 200.638L195.249 200.453C194.703 199.759 193.747 201.421 191.839 200.969L191.642 200.095C192.119 199.717 192.547 199.371 193.088 199.085C196.091 197.5 198.481 193.83 201.704 192.586C206.967 190.554 214.218 191.892 219.519 193.272C221.958 193.906 225.164 194.851 227.688 194.493C228.586 194.365 231.59 192.838 232.645 192.371C240.089 193.458 243.299 191.607 250.143 189.588C252.512 188.889 255.421 188.604 257.904 188.389C258.737 188.383 259.981 188.171 260.882 188.074C264.254 187.712 267.598 189.855 268.55 185.463L268.62 185.126L268.941 185.15L269.731 186.085ZM472.938 330.701C473.763 329.9 474.725 329.139 474.712 327.912L474.248 327.548C473.461 328.438 472.685 329.145 472.324 330.251L472.566 330.631L472.938 330.701Z"/>
</mask>
<path d="M269.731 186.085C270.194 187.099 269.919 186.906 270.731 187.275C271.744 187.026 275.173 184.197 276.615 183.325C279.108 181.803 281.787 180.61 284.587 179.776C291.889 177.551 299.956 177.184 307.476 175.656C312.775 174.609 317.923 172.803 323.13 171.39C327.055 170.324 330.998 169.846 334.901 169.065C340.941 167.856 345.598 167.463 351.625 168.868C355.528 169.778 359.946 169.932 363.859 171.113C371.428 173.081 380.023 171.12 386.966 175.453C390.58 177.684 393.136 180.838 397.146 182.276C400.691 183.564 404.081 182.952 407.774 183.146C409.882 183.257 412.067 183.596 414.178 183.796C422.811 184.614 430.781 188.489 439.204 190.379C442.072 191.022 445.139 190.412 447.964 191.35C453.794 193.514 456.149 198.298 462.033 200.784C482.625 209.483 503.234 241.974 490.04 263.369C487.733 267.108 484.898 268.86 481.965 271.736C483.132 283.866 482.83 287.502 476.774 298.426C480.806 298.375 484.005 300.381 488.051 301.158C491.536 301.743 493.029 301.589 496.687 302.28C500.382 302.981 507.177 306.84 510.886 305.354C511.589 305.074 512.091 302.989 514.74 303.714C515.629 303.96 516.964 303.261 517.673 302.957C522.578 305.041 526.411 308.472 529.408 312.805C536.631 314.493 544.383 315.062 541.364 325.038C540.443 328.169 538.731 331.008 536.394 333.282C531.637 337.996 525.537 340.371 520.16 344.592C517.082 347.008 508.172 356.164 505.611 357.412C499.091 360.592 485.154 359.214 478.237 356.628C475.27 355.724 472.841 354.09 471.583 351.164C471.157 350.172 470.205 347.801 470.893 346.798C473.429 343.082 479.259 342.248 482.407 338.424C484.933 335.358 483.938 333.859 485.399 331.437L485.865 331.356C486.24 331.817 486.499 332.119 486.814 332.632L487.14 332.68C487.326 331.229 485.569 325.315 484.792 323.964C481.582 321.936 475.278 332.901 470.496 333.616L470.103 333.257C470.122 331.025 472.653 327.492 474.132 325.866C474.979 324.935 476.507 324.498 477.062 323.395L477.011 322.883C470.378 322.263 465.521 321.82 458.834 321.734L459.063 322.05C462.904 327.206 472.847 330.925 462.125 338.184C456.732 341.839 447.788 341.075 441.63 341.998C435.35 343.206 431.584 342.639 425.598 342.982C416.45 343.508 407.332 344.934 398.125 343.411C396.125 343.125 391.16 341.118 390.475 339.417C386.931 330.607 397.265 331.658 401.397 330.528C406.884 329.026 410.105 325.502 413.677 321.694C414.297 321.011 417.086 318.816 417.986 318.094C413.803 316.066 409.9 313.471 405.294 315.31C400.569 317.198 395.696 320.534 390.43 318.053C390.036 317.867 389.645 317.673 389.26 317.473C386.874 313.566 386.12 308.887 385.562 304.372C382.559 305.071 380.476 306.088 377.643 307.034C370.883 309.294 364.7 312.123 357.668 313.274L357.568 313.62C356.94 315.839 356.811 318.53 356.531 320.922C355.762 327.462 354.647 333.306 353.474 339.846C352.218 346.873 349.334 353.367 347.348 360.034C346.709 362.183 349.501 369.068 349.1 371.721C348.919 380.637 347.512 388.759 344.353 397.125C343.218 400.129 341.321 402.801 340.019 405.574C337.954 410.25 333.61 415.635 329.276 418.308C325.834 420.427 319.438 419.589 315.306 421.258C311.578 422.76 305.247 429.583 302.169 424.292L304.206 422.151L304.091 419.111C301.393 419.637 299.875 420.549 297.576 422.019C293.975 424.055 288.999 424.616 285.258 422.644C284.617 418.637 278.102 421.97 275.795 419.376L276.067 418.944C277.191 418.405 278.089 418.087 278.773 417.032C279.092 416.558 279.393 416.072 279.687 415.581C279.129 415.109 279.242 415.344 279.027 414.732C281.415 412.626 285.652 410.876 286.873 408.521C288.954 407.699 288.673 406.914 289.921 405.493C294.309 400.493 305.306 403.085 310.389 402.392C311.174 398.158 312.699 396.275 315.333 392.939C314.627 392.19 313.624 391.2 313.106 390.326C310.452 385.852 315.478 385.329 315.804 382.64C316.333 378.285 312.349 375.791 310.36 372.743C308.403 369.745 307.875 365.33 309.659 362.177C310.325 360.915 312.228 358.745 312.451 357.337C313.241 352.356 314.19 347.642 315.36 342.726C314.255 339.654 310.92 336.305 310.29 332.211C309.546 327.381 311.22 324.897 313.804 321.16C308.406 315.437 310.058 309.868 311.697 302.927C308.441 297.005 303.029 297.595 303.98 289.972C297.608 283.141 290.326 277.186 285.054 269.47C284.075 268.038 282.471 263.89 281.364 261.874C277.768 269.009 276.073 276.79 272.294 284.047C269.1 290.179 265.394 291.452 262.22 296.112C260.567 298.542 257.911 306.26 256.236 309.345C253.645 314.113 251.371 319.224 248.812 324.061C247.896 325.79 245.413 329.487 244.811 330.946C242.075 337.691 240.811 344.875 237.855 351.574C236.293 355.468 232.123 354.44 228.816 354.295C224.021 354.085 222.822 354.37 218.541 351.941C217.517 353.103 213.2 357.72 212.867 358.793C210.055 367.916 205.928 376.689 207.549 386.454C207.723 387.5 201.292 394.134 199.991 395.056C197.735 395.269 193.082 395.663 190.966 394.878C188.31 393.894 187.276 392.594 183.98 392.311C180.636 392.168 177.541 393.94 174.266 394.277C171.679 394.544 169.254 393.781 166.816 393.028C161.589 391.413 157.357 391.195 153.05 387.646C154.789 387.098 156.286 386.198 157.945 385.54C163.993 383.145 170.256 380.629 175.504 376.77C179.327 373.96 183.795 373.628 182.984 367.838C182.712 365.902 182.746 363.593 182.479 361.603C181.816 356.657 183.98 352.232 184.982 347.456C184.009 346.043 179.229 348.208 180.658 342.337C182.556 334.544 188.122 329.908 191.237 322.977C189.272 320.297 187.023 317.484 186.212 314.243C186.303 311.451 186.556 309.089 187.525 306.462C189.045 302.806 188.562 299.71 188.29 295.853C186.839 293.634 186.653 292.65 183.87 292.075C183.353 291.32 183.563 290.379 183.565 289.289C184.471 284.184 184.767 280.067 185.25 274.953C185.59 271.343 186.62 267.888 186.93 264.023L186.661 263.868C185.749 264.922 185.169 265.584 184.14 266.537L183.828 266.466C184.007 265.295 184.914 263.664 185.539 262.568C186.776 260.397 187.536 255.232 186.729 252.956C187.844 249.223 189.272 237.447 190.076 232.99C188.601 235.04 187.614 236.738 186.658 239.063L186.437 239.013L186.133 237.779C187.302 232.754 188.887 228.861 190.659 224.066C191.301 222.332 191.666 219.239 191.96 217.318C189.054 219.271 187.434 219.821 185.044 222.543L184.699 222.309C185.381 219.929 184.65 218.664 185.709 217.274C186.802 216.767 190.042 215.388 190.775 214.7C192.229 213.333 191.414 211.797 193.406 209.865C193.002 208.783 192.723 208.296 192.149 207.287C192.379 206.153 192.859 205.217 193.321 204.154C194.252 202.773 194.688 202.225 195.208 200.638L195.249 200.453C194.703 199.759 193.747 201.421 191.839 200.969L191.642 200.095C192.119 199.717 192.547 199.371 193.088 199.085C196.091 197.5 198.481 193.83 201.704 192.586C206.967 190.554 214.218 191.892 219.519 193.272C221.958 193.906 225.164 194.851 227.688 194.493C228.586 194.365 231.59 192.838 232.645 192.371C240.089 193.458 243.299 191.607 250.143 189.588C252.512 188.889 255.421 188.604 257.904 188.389C258.737 188.383 259.981 188.171 260.882 188.074C264.254 187.712 267.598 189.855 268.55 185.463L268.62 185.126L268.941 185.15L269.731 186.085ZM472.938 330.701C473.763 329.9 474.725 329.139 474.712 327.912L474.248 327.548C473.461 328.438 472.685 329.145 472.324 330.251L472.566 330.631L472.938 330.701Z" stroke="var(--stroke-0, #F5CF3D)" stroke-width="6" stroke-linejoin="round" mask="url(#path-1-outside-1_0_56)"/>
</g>
<path id="Vector_2" d="M474.248 327.549L474.712 327.913C474.725 329.14 473.763 329.9 472.938 330.701L472.566 330.631L472.324 330.251C472.685 329.145 473.461 328.439 474.248 327.549Z" fill="var(--fill-0, #F5CF3E)"/>
<path id="Vector_3" d="M286.873 408.521C285.652 410.876 281.415 412.626 279.027 414.732C279.242 415.344 279.129 415.109 279.687 415.581C279.393 416.072 279.092 416.558 278.773 417.032C278.089 418.087 277.191 418.405 276.067 418.944L275.795 419.376C278.102 421.97 284.617 418.637 285.258 422.644C282.887 421.563 280.458 421.614 277.86 420.918C275.954 420.409 274.329 419.815 272.461 419.203C274.534 416.612 283.506 409.511 286.873 408.521Z" fill="var(--fill-0, #F5CF3E)"/>
<path id="Vector_4" d="M183.035 293.82C183.561 294.211 184.894 295.031 184.733 295.689C184.24 297.709 185.631 299.947 187.455 301.077L187.959 300.929C188.437 302.86 187.259 304.154 187.525 306.463C186.555 309.089 186.303 311.452 186.212 314.243C185.979 313.321 186.092 311.783 185.874 310.511L183.035 293.82Z" fill="var(--fill-0, #F5CF3E)"/>
<path id="Vector_5" d="M183.565 289.289C183.563 290.379 183.353 291.32 183.87 292.075C186.653 292.649 186.838 293.634 188.29 295.853C188.562 299.709 189.045 302.805 187.525 306.462C187.259 304.154 188.437 302.859 187.959 300.928L187.455 301.077C185.631 299.947 184.24 297.708 184.733 295.688C184.894 295.03 183.561 294.211 183.035 293.82C183.098 292.169 183.14 290.888 183.565 289.289Z" fill="var(--fill-0, #F5CF3E)"/>
<path id="Vector_6" d="M190.076 232.99C189.272 237.447 187.844 249.224 186.729 252.957L186.518 252.901C184.969 250.788 184.525 249.25 185.389 246.632C185.418 247.464 185.381 248.015 185.664 248.806C187.384 248.23 186.288 244.54 186.626 243.209C186.958 241.907 188.609 240.57 188.083 239.157C187.408 239.647 187.693 239.575 186.946 239.696L186.658 239.063C187.614 236.739 188.601 235.04 190.076 232.99Z" fill="var(--fill-0, #F5CF3E)"/>
<path id="Vector_7" d="M297.576 422.019C299.875 420.549 301.393 419.637 304.091 419.111L304.206 422.151L302.169 424.292C300.735 422.064 300.142 422.013 297.576 422.019Z" fill="var(--fill-0, #F5CF3E)"/>
<path id="Vector_8" d="M192.149 207.288C189.189 205.676 190.227 202.483 191.642 200.096L191.839 200.969C193.747 201.421 194.703 199.76 195.249 200.453L195.208 200.638C194.176 201.065 192.625 202.772 193.016 203.915L193.321 204.154C192.859 205.218 192.379 206.153 192.149 207.288Z" fill="var(--fill-0, #F5CF3E)"/>
<path id="Vector_9" d="M186.133 237.779L186.437 239.013L186.658 239.063L186.946 239.696C187.693 239.574 187.408 239.646 188.083 239.157C188.609 240.57 186.958 241.906 186.626 243.208C186.288 244.539 187.384 248.23 185.664 248.806C185.381 248.015 185.418 247.464 185.388 246.631C185.711 246.023 185.908 239.071 186.133 237.779Z" fill="var(--fill-0, #F5CF3E)"/>
<path id="Vector_10" d="M179.625 221.873C182.02 220.385 183.514 218.77 185.709 217.274C184.65 218.664 185.381 219.93 184.699 222.309L185.044 222.543C184.953 223.145 183.997 224.08 183.502 224.476L183.342 224.251C183.595 222.59 184.63 222.041 184.919 220.523L184.53 220.27C183.393 220.354 181.189 221.427 179.625 221.873Z" fill="var(--fill-0, #F5CF3E)"/>
<path id="Vector_11" d="M193.321 204.154L193.016 203.915C192.625 202.771 194.176 201.064 195.208 200.638C194.688 202.225 194.252 202.773 193.321 204.154Z" fill="var(--fill-0, #F5CF3E)"/>
</g>
</svg>
