<svg preserveAspectRatio="none" width="100%" height="100%" overflow="visible" style="display: block;" viewBox="0 0 315.557 361.913" fill="none" xmlns="http://www.w3.org/2000/svg">
<path id="Vector" d="M35.4336 5.49804C48.5449 2.99778 60.7499 1.89252 74.207 2.833C84.992 3.5868 96.5139 4.0268 107.523 5.63671L108.587 5.79686L108.612 5.80077C134.502 10.0436 159.592 18.1862 183.026 29.9473L185.289 31.0967L185.299 31.1016L185.308 31.1064C189.527 33.3224 193.558 35.7035 197.497 38.4521C198.872 39.4113 200.312 40.7026 201.566 41.7988C202.901 42.9652 204.044 43.9275 205.041 44.5303C209.608 47.2915 213.722 50.3831 217.761 53.5576L221.788 56.751L221.835 56.7881L221.881 56.8281C221.961 56.8982 222.185 57.0545 222.639 57.3027C223.071 57.5391 223.56 57.7796 224.125 58.0615C224.659 58.3278 225.264 58.6328 225.806 58.9521C226.305 59.2469 226.968 59.6768 227.477 60.248H227.478C232.117 65.4646 237.031 69.9087 242.147 74.9277C246.592 79.288 251.479 84.3516 255.862 89.0459L257.707 91.0322L257.747 91.0762L257.786 91.1221C264.65 99.3026 271.829 108.536 277.443 117.761L278.145 118.928C285.325 131.026 290.447 144.292 295.83 156.808L297.22 160.066C300.413 167.636 303.272 175 305.827 183.006L306.055 183.741C307.16 187.42 307.837 191.322 308.614 194.735C310.179 200.39 310.483 205.181 310.947 210.606V210.607C311.192 213.471 311.617 216.391 312.034 219.429C312.445 222.421 312.845 225.509 313.007 228.573C313.155 230.769 312.947 233.306 312.705 235.648C312.453 238.088 312.169 240.289 312.077 242.151C311.146 261.221 306.105 277.94 297.214 294.534L296.342 296.141C293.812 300.729 289.24 308.48 285.588 312.744L285.589 312.745C280.441 318.759 272.936 325.219 266.886 330.004C264.056 332.441 261.157 334.839 258.354 337.219C256.01 339.211 253.448 340.833 251.009 342.322C248.52 343.842 246.201 345.201 244.07 346.769L244.069 346.768C238.424 350.923 232.611 354.933 226.98 358.948L226.329 359.413H42.623L41.918 358.803C40.9058 357.926 38.6896 356.655 36.0088 355.191C33.5056 353.825 30.6603 352.322 28.8955 351.122V351.121C24.3333 348.101 19.4279 345.12 14.7881 341.852L13.8623 341.192C12.029 339.874 10.2848 338.505 8.58594 337.158C6.87465 335.802 5.21892 334.477 3.50195 333.192L2.5 332.442V16.4961L4.30664 15.9746C5.6459 15.588 7.05324 14.9349 8.67383 14.1728C10.2127 13.4492 11.974 12.6118 13.7334 12.0986C17.1657 11.0976 20.6559 9.83581 24.3369 8.59862C27.9626 7.38003 31.7153 6.20718 35.4336 5.49804Z" stroke="var(--stroke-0, #F5CF3D)" stroke-width="5"/>
</svg>
